<?xml version="1.0" encoding="utf-8"?>
<!-- Generator: Adobe Illustrator 23.0.0, SVG Export Plug-In . SVG Version: 6.00 Build 0)  -->
<svg version="1.1" id="Layer_1" xmlns="http://www.w3.org/2000/svg" xmlns:xlink="http://www.w3.org/1999/xlink" x="0px" y="0px"
	 viewBox="0 0 121 147" style="enable-background:new 0 0 121 147;" xml:space="preserve">
<style type="text/css">
	.st0{fill:#FFFFFF;}
</style>
<path class="st0" d="M4.63,20.24h47.79v28.57c-3.71-4.85-7.4-9.7-11.06-14.59c-2.21-2.96-4.54-4.11-8.2-4.01
	c-9.39,0.23-18.78,0.08-28.54,0.08V20.24z"/>
<path class="st0" d="M106,20.24v9.89H72.06v42.19c-0.42,0.13-0.84,0.24-1.27,0.37c-4.19-5.45-8.38-10.89-12.58-16.34v-36.1H106z"/>
<rect x="4.63" y="3.66" class="st0" width="101.37" height="10.8"/>
<path class="st0" d="M39.18,76.44c4.51,6.07,8.89,11.97,13.24,17.82v24.65H39.18V76.44z"/>
<path class="st0" d="M70.76,118.92H58.21v-16.89C62.36,107.61,66.51,113.21,70.76,118.92z"/>
</svg>
